<svg width="1386" height="484" viewBox="0 0 1386 484" fill="none" xmlns="http://www.w3.org/2000/svg">
<path d="M0 328.986C16.2799 328.986 140.007 479.486 303.736 479.486C531.189 479.486 653.654 -68.7716 974.002 84.4859C1227.97 205.986 1339.6 218.986 1386.12 134.486" stroke="black"/>
<path d="M0 198.986C14.4193 210.486 140.007 479.486 303.736 479.486C531.189 479.486 690.866 -8.77151 1011.21 144.486C1265.18 265.986 1305.18 246.486 1386.12 184.486" stroke="black"/>
<path d="M0 408.986C16.2799 408.986 140.007 483.486 303.736 483.486C531.189 483.486 656.311 -158.253 955.396 38.4859C1173.55 181.986 1302.39 238.986 1386.12 174.486" stroke="black"/>
</svg>
