<svg width="557" height="355" viewBox="0 0 557 355" fill="none" xmlns="http://www.w3.org/2000/svg">
<circle cx="11" cy="138" r="2" fill="#44C8E5"/>
<circle cx="31" cy="138" r="2" fill="#44C8E5"/>
<circle cx="51" cy="138" r="2" fill="#44C8E5"/>
<circle cx="71" cy="138" r="2" fill="#44C8E5"/>
<circle cx="91" cy="138" r="2" fill="#44C8E5"/>
<circle cx="111" cy="138" r="2" fill="#44C8E5"/>
<circle cx="131" cy="138" r="2" fill="#44C8E5"/>
<circle cx="151" cy="138" r="2" fill="#44C8E5"/>
<circle cx="11" cy="158" r="2" fill="#44C8E5"/>
<circle cx="31" cy="158" r="2" fill="#44C8E5"/>
<circle cx="51" cy="158" r="2" fill="#44C8E5"/>
<circle cx="71" cy="158" r="2" fill="#44C8E5"/>
<circle cx="91" cy="158" r="2" fill="#44C8E5"/>
<circle cx="111" cy="158" r="2" fill="#44C8E5"/>
<circle cx="131" cy="158" r="2" fill="#44C8E5"/>
<circle cx="151" cy="158" r="2" fill="#44C8E5"/>
<circle cx="11" cy="178" r="2" fill="#44C8E5"/>
<circle cx="31" cy="178" r="2" fill="#44C8E5"/>
<circle cx="51" cy="178" r="2" fill="#44C8E5"/>
<circle cx="71" cy="178" r="2" fill="#44C8E5"/>
<circle cx="91" cy="178" r="2" fill="#44C8E5"/>
<circle cx="111" cy="178" r="2" fill="#44C8E5"/>
<circle cx="131" cy="178" r="2" fill="#44C8E5"/>
<circle cx="151" cy="178" r="2" fill="#44C8E5"/>
<circle cx="11" cy="198" r="2" fill="#44C8E5"/>
<circle cx="31" cy="198" r="2" fill="#44C8E5"/>
<circle cx="51" cy="198" r="2" fill="#44C8E5"/>
<circle cx="71" cy="198" r="2" fill="#44C8E5"/>
<circle cx="91" cy="198" r="2" fill="#44C8E5"/>
<circle cx="111" cy="198" r="2" fill="#44C8E5"/>
<circle cx="131" cy="198" r="2" fill="#44C8E5"/>
<circle cx="151" cy="198" r="2" fill="#44C8E5"/>
<circle cx="11" cy="218" r="2" fill="#44C8E5"/>
<circle cx="31" cy="218" r="2" fill="#44C8E5"/>
<circle cx="51" cy="218" r="2" fill="#44C8E5"/>
<circle cx="71" cy="218" r="2" fill="#44C8E5"/>
<circle cx="91" cy="218" r="2" fill="#44C8E5"/>
<circle cx="111" cy="218" r="2" fill="#44C8E5"/>
<circle cx="131" cy="218" r="2" fill="#44C8E5"/>
<circle cx="151" cy="218" r="2" fill="#44C8E5"/>
<circle cx="11" cy="238" r="2" fill="#44C8E5"/>
<circle cx="31" cy="238" r="2" fill="#44C8E5"/>
<circle cx="51" cy="238" r="2" fill="#44C8E5"/>
<circle cx="71" cy="238" r="2" fill="#44C8E5"/>
<circle cx="91" cy="238" r="2" fill="#44C8E5"/>
<circle cx="111" cy="238" r="2" fill="#44C8E5"/>
<circle cx="131" cy="238" r="2" fill="#44C8E5"/>
<circle cx="151" cy="238" r="2" fill="#44C8E5"/>
<circle cx="11" cy="258" r="2" fill="#44C8E5"/>
<circle cx="31" cy="258" r="2" fill="#44C8E5"/>
<circle cx="51" cy="258" r="2" fill="#44C8E5"/>
<circle cx="71" cy="258" r="2" fill="#44C8E5"/>
<circle cx="91" cy="258" r="2" fill="#44C8E5"/>
<circle cx="111" cy="258" r="2" fill="#44C8E5"/>
<circle cx="131" cy="258" r="2" fill="#44C8E5"/>
<circle cx="151" cy="258" r="2" fill="#44C8E5"/>
<circle cx="11" cy="278" r="2" fill="#44C8E5"/>
<circle cx="31" cy="278" r="2" fill="#44C8E5"/>
<circle cx="51" cy="278" r="2" fill="#44C8E5"/>
<circle cx="71" cy="278" r="2" fill="#44C8E5"/>
<circle cx="91" cy="278" r="2" fill="#44C8E5"/>
<circle cx="111" cy="278" r="2" fill="#44C8E5"/>
<circle cx="131" cy="278" r="2" fill="#44C8E5"/>
<circle cx="151" cy="278" r="2" fill="#44C8E5"/>
<circle cx="467" cy="8" r="8" fill="#7B55EC"/>
<circle cx="544" cy="236" r="13" fill="#7ABADD"/>
<circle cx="6" cy="349" r="6" fill="#583FBC"/>
</svg>
