<svg width="515" height="355" viewBox="0 0 515 355" fill="none" xmlns="http://www.w3.org/2000/svg">
<ellipse cx="10.1706" cy="138" rx="1.84919" ry="2" fill="white"/>
<ellipse cx="28.6625" cy="138" rx="1.84919" ry="2" fill="white"/>
<ellipse cx="47.1544" cy="138" rx="1.84919" ry="2" fill="white"/>
<ellipse cx="65.6463" cy="138" rx="1.84919" ry="2" fill="white"/>
<ellipse cx="84.1382" cy="138" rx="1.84919" ry="2" fill="white"/>
<ellipse cx="102.63" cy="138" rx="1.84919" ry="2" fill="white"/>
<ellipse cx="121.122" cy="138" rx="1.84919" ry="2" fill="white"/>
<ellipse cx="139.614" cy="138" rx="1.84919" ry="2" fill="white"/>
<ellipse cx="10.1706" cy="158" rx="1.84919" ry="2" fill="white"/>
<ellipse cx="28.6625" cy="158" rx="1.84919" ry="2" fill="white"/>
<ellipse cx="47.1544" cy="158" rx="1.84919" ry="2" fill="white"/>
<ellipse cx="65.6463" cy="158" rx="1.84919" ry="2" fill="white"/>
<ellipse cx="84.1382" cy="158" rx="1.84919" ry="2" fill="white"/>
<ellipse cx="102.63" cy="158" rx="1.84919" ry="2" fill="white"/>
<ellipse cx="121.122" cy="158" rx="1.84919" ry="2" fill="white"/>
<ellipse cx="139.614" cy="158" rx="1.84919" ry="2" fill="white"/>
<ellipse cx="10.1706" cy="178" rx="1.84919" ry="2" fill="white"/>
<ellipse cx="28.6625" cy="178" rx="1.84919" ry="2" fill="white"/>
<ellipse cx="47.1544" cy="178" rx="1.84919" ry="2" fill="white"/>
<ellipse cx="65.6463" cy="178" rx="1.84919" ry="2" fill="white"/>
<ellipse cx="84.1382" cy="178" rx="1.84919" ry="2" fill="white"/>
<ellipse cx="102.63" cy="178" rx="1.84919" ry="2" fill="white"/>
<ellipse cx="121.122" cy="178" rx="1.84919" ry="2" fill="white"/>
<ellipse cx="139.614" cy="178" rx="1.84919" ry="2" fill="white"/>
<ellipse cx="10.1706" cy="198" rx="1.84919" ry="2" fill="white"/>
<ellipse cx="28.6625" cy="198" rx="1.84919" ry="2" fill="white"/>
<ellipse cx="47.1544" cy="198" rx="1.84919" ry="2" fill="white"/>
<ellipse cx="65.6463" cy="198" rx="1.84919" ry="2" fill="white"/>
<ellipse cx="84.1382" cy="198" rx="1.84919" ry="2" fill="white"/>
<ellipse cx="102.63" cy="198" rx="1.84919" ry="2" fill="white"/>
<ellipse cx="121.122" cy="198" rx="1.84919" ry="2" fill="white"/>
<ellipse cx="139.614" cy="198" rx="1.84919" ry="2" fill="white"/>
<ellipse cx="10.1706" cy="218" rx="1.84919" ry="2" fill="white"/>
<ellipse cx="28.6625" cy="218" rx="1.84919" ry="2" fill="white"/>
<ellipse cx="47.1544" cy="218" rx="1.84919" ry="2" fill="white"/>
<ellipse cx="65.6463" cy="218" rx="1.84919" ry="2" fill="white"/>
<ellipse cx="84.1382" cy="218" rx="1.84919" ry="2" fill="white"/>
<ellipse cx="102.63" cy="218" rx="1.84919" ry="2" fill="white"/>
<ellipse cx="121.122" cy="218" rx="1.84919" ry="2" fill="white"/>
<ellipse cx="139.614" cy="218" rx="1.84919" ry="2" fill="white"/>
<ellipse cx="10.1706" cy="238" rx="1.84919" ry="2" fill="white"/>
<ellipse cx="28.6625" cy="238" rx="1.84919" ry="2" fill="white"/>
<ellipse cx="47.1544" cy="238" rx="1.84919" ry="2" fill="white"/>
<ellipse cx="65.6463" cy="238" rx="1.84919" ry="2" fill="white"/>
<ellipse cx="84.1382" cy="238" rx="1.84919" ry="2" fill="white"/>
<ellipse cx="102.63" cy="238" rx="1.84919" ry="2" fill="white"/>
<ellipse cx="121.122" cy="238" rx="1.84919" ry="2" fill="white"/>
<ellipse cx="139.614" cy="238" rx="1.84919" ry="2" fill="white"/>
<ellipse cx="10.1706" cy="258" rx="1.84919" ry="2" fill="white"/>
<ellipse cx="28.6625" cy="258" rx="1.84919" ry="2" fill="white"/>
<ellipse cx="47.1544" cy="258" rx="1.84919" ry="2" fill="white"/>
<ellipse cx="65.6463" cy="258" rx="1.84919" ry="2" fill="white"/>
<ellipse cx="84.1382" cy="258" rx="1.84919" ry="2" fill="white"/>
<ellipse cx="102.63" cy="258" rx="1.84919" ry="2" fill="white"/>
<ellipse cx="121.122" cy="258" rx="1.84919" ry="2" fill="white"/>
<ellipse cx="139.614" cy="258" rx="1.84919" ry="2" fill="white"/>
<ellipse cx="10.1706" cy="278" rx="1.84919" ry="2" fill="white"/>
<ellipse cx="28.6625" cy="278" rx="1.84919" ry="2" fill="white"/>
<ellipse cx="47.1544" cy="278" rx="1.84919" ry="2" fill="white"/>
<ellipse cx="65.6463" cy="278" rx="1.84919" ry="2" fill="white"/>
<ellipse cx="84.1382" cy="278" rx="1.84919" ry="2" fill="white"/>
<ellipse cx="102.63" cy="278" rx="1.84919" ry="2" fill="white"/>
<ellipse cx="121.122" cy="278" rx="1.84919" ry="2" fill="white"/>
<ellipse cx="139.614" cy="278" rx="1.84919" ry="2" fill="white"/>
<ellipse cx="431.786" cy="8" rx="7.39677" ry="8" fill="#7B55EC"/>
<ellipse cx="502.98" cy="236" rx="12.0197" ry="13" fill="#7ABADD"/>
<ellipse cx="5.54758" cy="349" rx="5.54758" ry="6" fill="#5797E0"/>
</svg>
